<?xml version="1.0" standalone="no"?>
<!DOCTYPE svg PUBLIC "-//W3C//DTD SVG 20010904//EN"
 "http://www.w3.org/TR/2001/REC-SVG-20010904/DTD/svg10.dtd">
<svg version="1.0" xmlns="http://www.w3.org/2000/svg"
 width="102.000000pt" height="102.000000pt" viewBox="0 0 102.000000 102.000000"
 preserveAspectRatio="xMidYMid meet">
<metadata>
Created by potrace 1.11, written by Peter Selinger 2001-2013
</metadata>
<g transform="translate(0.000000,102.000000) scale(0.100000,-0.100000)"
fill="#000000" stroke="none">
<path d="M410 1004 c-178 -38 -327 -172 -381 -344 -102 -324 141 -653 481
-652 217 1 403 130 475 332 25 69 27 79 26 171 0 94 -22 179 -68 256 -22 38
-24 63 -5 63 4 0 17 -16 30 -36 12 -19 27 -32 32 -29 5 3 8 58 7 122 l-2 117
-117 1 c-127 1 -145 -8 -88 -42 33 -19 39 -38 15 -47 -8 -3 -15 -2 -15 2 0 14
-97 61 -160 77 -87 23 -154 25 -230 9z m233 -164 c90 -34 195 -146 209 -225 3
-19 -5 -20 -344 -20 -321 -1 -346 0 -338 16 5 9 7 19 4 21 -2 3 15 34 38 69
97 145 268 200 431 139z m204 -419 c17 -1 -11 -73 -46 -121 -130 -175 -374
-199 -534 -51 -49 45 -104 139 -95 162 5 12 59 14 334 12 181 0 335 -2 341 -2z"/>
</g>
</svg>
